<svg width="107" height="108" viewBox="0 0 107 108" fill="none" xmlns="http://www.w3.org/2000/svg">
<g clip-path="url(#clip0)">
<path d="M54.8969 58.9427C54.6989 58.8999 54.4958 58.8921 54.2953 58.9221C52.2857 58.6882 50.7696 56.9879 50.7662 54.9654C50.7662 53.9962 49.9804 53.2103 49.0111 53.2103C48.0419 53.2103 47.256 53.9962 47.256 54.9654C47.2611 58.3428 49.5202 61.3011 52.7767 62.195V63.9501C52.7767 64.9193 53.5626 65.7052 54.5318 65.7052C55.5011 65.7052 56.2869 64.9193 56.2869 63.9501V62.3012C60.0457 61.5145 62.6003 58.0137 62.2053 54.1941C61.8093 50.3745 58.5914 47.4719 54.7512 47.4711C52.5505 47.4711 50.7662 45.6868 50.7662 43.4861C50.7662 41.2853 52.5505 39.5011 54.7512 39.5011C56.9519 39.5011 58.7362 41.2853 58.7362 43.4861C58.7362 44.4553 59.522 45.2412 60.4913 45.2412C61.4606 45.2412 62.2464 44.4553 62.2464 43.4861C62.2413 39.9399 59.7569 36.8813 56.2869 36.1494V34.552C56.2869 33.5827 55.5011 32.7969 54.5318 32.7969C53.5626 32.7969 52.7767 33.5827 52.7767 34.552V36.2565C49.1551 37.2455 46.8241 40.7617 47.3228 44.4828C47.8216 48.2038 50.9967 50.9813 54.7512 50.9804C56.9228 50.9804 58.6942 52.7193 58.7336 54.89C58.7739 57.0608 57.0668 58.8639 54.8969 58.9427Z" fill="white"/>
<path d="M29.3004 49.3607C29.3004 63.417 40.6949 74.8115 54.7512 74.8115C68.8075 74.8115 80.202 63.417 80.202 49.3607C80.202 35.3044 68.8075 23.9099 54.7512 23.9099C40.7018 23.9253 29.3167 35.3113 29.3004 49.3607ZM54.7512 27.4201C66.869 27.4201 76.6918 37.2429 76.6918 49.3607C76.6918 61.4785 66.869 71.3013 54.7512 71.3013C42.6334 71.3013 32.8106 61.4785 32.8106 49.3607C32.8243 37.2489 42.6394 27.4338 54.7512 27.4201Z" fill="white"/>
<path d="M88.8541 79.1383L75.1055 85.6343C73.2073 82.1035 69.5659 79.8565 65.5587 79.7434L52.8667 79.3946C50.8571 79.3372 48.8851 78.8281 47.0983 77.9051L45.8068 77.2358C39.1943 73.789 31.3126 73.7976 24.707 77.2581L24.7875 74.3324C24.8141 73.3631 24.0505 72.5558 23.0813 72.5293L9.16379 72.1462C8.19454 72.1196 7.38812 72.8832 7.36155 73.8524L6.52084 104.394C6.49428 105.363 7.25785 106.17 8.22711 106.197L22.1446 106.58H22.1926C23.1438 106.58 23.922 105.823 23.9477 104.873L23.9879 103.412L27.6036 101.476C29.0227 100.712 30.6819 100.53 32.2322 100.969L53.8231 107.029C53.8608 107.04 53.8985 107.049 53.9371 107.057C55.4976 107.384 57.0882 107.547 58.6822 107.547C62.0587 107.548 65.3958 106.821 68.4647 105.412C68.5401 105.378 68.613 105.337 68.6824 105.292L99.9873 85.043C100.767 84.5382 101.019 83.5141 100.562 82.7051C98.2381 78.5813 93.0834 77.0104 88.8541 79.1383ZM10.0782 102.736L10.8221 75.7035L21.2302 75.9898L20.4863 103.023L10.0782 102.736ZM66.8836 102.277C63.0708 103.998 58.8125 104.473 54.7144 103.635L33.1817 97.591C30.7581 96.9062 28.164 97.1899 25.947 98.382L24.0994 99.3718L24.5938 81.3982C30.4488 77.5041 37.9577 77.1038 44.1931 80.3527L45.4846 81.022C47.7419 82.1875 50.2315 82.8302 52.7707 82.9039L65.4635 83.2527C69.0286 83.3556 72.0563 85.894 72.7796 89.387L53.8736 88.8651C52.9044 88.8386 52.098 89.603 52.0705 90.5714C52.044 91.5407 52.8084 92.3479 53.7768 92.3745L74.641 92.9487H74.6899C75.6403 92.9478 76.4175 92.1911 76.4433 91.2416C76.4647 90.4788 76.4081 89.7153 76.2736 88.9645L90.3753 82.3015C90.389 82.2955 90.4027 82.2886 90.4164 82.2818C92.4166 81.2697 94.835 81.6082 96.4805 83.131L66.8836 102.277Z" fill="white"/>
<path d="M56.5063 18.9753V2.30174C56.5063 1.33249 55.7205 0.546631 54.7512 0.546631C53.7819 0.546631 52.9961 1.33249 52.9961 2.30174V18.9753C52.9961 19.9445 53.7819 20.7304 54.7512 20.7304C55.7205 20.7304 56.5063 19.9445 56.5063 18.9753Z" fill="white"/>
<path d="M69.6696 18.9754V11.0774C69.6696 10.1081 68.8838 9.32227 67.9145 9.32227C66.9453 9.32227 66.1594 10.1081 66.1594 11.0774V18.9754C66.1594 19.9446 66.9453 20.7305 67.9145 20.7305C68.8838 20.7305 69.6696 19.9446 69.6696 18.9754Z" fill="white"/>
<path d="M43.343 18.9754V11.0774C43.343 10.1081 42.5571 9.32227 41.5879 9.32227C40.6186 9.32227 39.8328 10.1081 39.8328 11.0774V18.9754C39.8328 19.9446 40.6186 20.7305 41.5879 20.7305C42.5571 20.7305 43.343 19.9446 43.343 18.9754Z" fill="white"/>
</g>
<defs>
<clipPath id="clip0">
<rect y="0.546631" width="107" height="107" fill="white"/>
</clipPath>
</defs>
</svg>
