<svg width="20" height="18" viewBox="0 0 20 18" fill="none" xmlns="http://www.w3.org/2000/svg">
<path d="M0.457272 9.12603L4.93465 10.7976L6.6673 16.3803C6.78065 16.7373 7.21787 16.8671 7.50124 16.6318L9.99497 14.5951C10.2541 14.3841 10.6265 14.3679 10.9018 14.5708L15.4034 17.849C15.7111 18.0762 16.1483 17.9058 16.2293 17.5325L19.5408 1.63649C19.6217 1.22265 19.225 0.881851 18.8364 1.03602L0.457272 8.13608C0.00386672 8.3146 0.00386672 8.95563 0.457272 9.12603ZM6.39202 9.90501L15.1444 4.50085C15.2982 4.40348 15.4601 4.61445 15.3306 4.74428L8.10848 11.4711C7.85749 11.7064 7.68746 12.0229 7.64698 12.3718L7.40409 14.1975C7.3717 14.4409 7.03165 14.4653 6.95878 14.23L6.01148 10.895C5.89813 10.5217 6.06006 10.116 6.39202 9.90501Z" fill="#FFF"/>
</svg>
