<svg width="233" height="58" viewBox="0 0 233 58" fill="none" xmlns="http://www.w3.org/2000/svg">
<g opacity="0.5">
<path d="M32.0627 18.3998L28.0817 41.7622H34.4488L38.4331 18.3998H32.0627Z" fill="white"/>
<path d="M22.743 18.426L16.5069 34.3584L15.842 31.9528C14.6122 29.0542 11.1207 24.8913 7.02176 22.2678L12.724 41.7507L19.4612 41.7392L29.4884 18.421L22.743 18.426Z" fill="white"/>
<path d="M13.4249 20.098C13.0548 18.6749 11.9821 18.2507 10.6507 18.2H0.779117L0.697235 18.665C8.37935 20.5287 13.4626 25.019 15.5718 30.4183L13.4249 20.098Z" fill="white"/>
<path d="M51.3376 22.8787C53.4207 22.8459 54.9306 23.3012 56.1031 23.7728L56.6779 24.043L57.5393 18.9795C56.2784 18.5062 54.3017 17.9985 51.8355 17.9985C45.5437 17.9985 41.109 21.1673 41.0746 25.7085C41.0337 29.064 44.2336 30.9374 46.6507 32.0559C49.1317 33.2023 49.9637 33.931 49.9522 34.9545C49.9325 36.5185 47.9739 37.2358 46.1447 37.2358C43.5949 37.2358 42.2406 36.8837 40.1493 36.0125L39.3289 35.6391L38.4331 40.868C39.9234 41.5214 42.6729 42.0831 45.5273 42.1126C52.2203 42.1126 56.5699 38.9815 56.6157 34.1292C56.6435 31.4746 54.9453 29.4488 51.2656 27.7866C49.0384 26.7025 47.6759 25.982 47.689 24.888C47.689 23.9169 48.8452 22.8787 51.3376 22.8787Z" fill="white"/>
<path d="M73.8796 18.426H68.9602C67.4322 18.426 66.2957 18.8419 65.6243 20.3649L56.1703 41.7753H62.8567C62.8567 41.7753 63.9474 38.8963 64.1947 38.2658C64.9267 38.2658 71.4231 38.2757 72.3484 38.2757C72.5384 39.0912 73.1246 41.7753 73.1246 41.7753H79.0316L73.8796 18.426ZM66.0272 33.484C66.5512 32.1427 68.5639 26.9547 68.5639 26.9547C68.5295 27.0186 69.083 25.6037 69.4121 24.7243L69.8412 26.7386C69.8412 26.7386 71.0612 32.3163 71.3167 33.484H66.0272Z" fill="white"/>
</g>
<g opacity="0.5">
<g clip-path="url(#clip0)">
<path d="M215.211 11.9985C205.545 11.9904 197.705 19.8194 197.697 29.485C197.689 39.1506 205.518 46.9904 215.184 46.9985C224.848 46.9904 232.682 39.1629 232.697 29.4985C232.697 19.8383 224.871 12.0067 215.211 11.9985ZM215.184 44.0864C207.127 44.0864 200.596 37.555 200.596 29.4985C200.596 21.442 207.127 14.9107 215.184 14.9107C223.237 14.9189 229.763 21.4448 229.771 29.4985C229.771 37.555 223.24 44.0864 215.184 44.0864Z" fill="white"/>
<path d="M219.911 28.6451C221.081 27.9855 221.714 26.6649 221.496 25.3402C221.225 23.2949 218.787 22.5228 216.863 22.3603V19.2856H214.967V22.3332H213.694V19.2856H211.798V22.3332H207.978V24.2973H209.4C210.037 24.2973 210.348 24.4869 210.348 25.0016V33.4401C210.348 34.1444 209.996 34.3611 209.617 34.3611H208.167V36.3658H211.852V39.4811H213.762V36.3658H215.035V39.4811H216.89V36.3658H217.297C221.198 36.3658 222.498 34.456 222.498 31.8554C222.467 30.322 221.404 29.0027 219.911 28.6451ZM213.694 24.4192H215.048C215.996 24.4192 217.866 24.5817 217.866 26.1258C217.931 27.1336 217.201 28.0167 216.2 28.144H213.694V24.4192ZM215.793 34.1714V34.1579H213.694V30.0944H216.132C216.701 30.0944 218.841 30.284 218.841 31.8011C218.841 33.3181 217.825 34.1714 215.793 34.1714Z" fill="white"/>
</g>
</g>
<g clip-path="url(#clip1)">
<g opacity="0.5">
<path d="M165.697 29.4984C165.697 38.908 158.097 46.5984 148.597 46.5984C139.188 46.5984 131.497 38.908 131.497 29.4984C131.497 20.0889 139.097 12.3984 148.507 12.3984C158.097 12.3984 165.697 20.0889 165.697 29.4984Z" fill="white"/>
<path d="M125.616 12.3984C116.297 12.4889 108.697 20.0889 108.697 29.4984C108.697 38.908 116.297 46.5984 125.797 46.5984C130.231 46.5984 134.212 44.8794 137.288 42.1651C137.921 41.6222 138.464 40.9889 139.007 40.3556H135.478C135.026 39.8127 134.573 39.1794 134.212 38.6365H140.273C140.635 38.0937 140.997 37.4603 141.269 36.827H133.216C132.945 36.2841 132.673 35.6508 132.492 35.0175H141.902C142.445 33.2984 142.807 31.4889 142.807 29.5889C142.807 28.3222 142.626 27.1461 142.445 25.9699H131.95C132.04 25.3365 132.221 24.7937 132.402 24.1603H141.812C141.631 23.527 141.359 22.8937 141.088 22.3508H133.126C133.397 21.7175 133.759 21.1746 134.121 20.5413H140.183C139.821 19.908 139.369 19.2746 138.826 18.7318H135.478C136.021 18.0984 136.564 17.5556 137.197 17.0127C134.212 14.208 130.14 12.5794 125.707 12.5794C125.707 12.3984 125.707 12.3984 125.616 12.3984Z" fill="white"/>
</g>
<path d="M131.859 33.8413L132.131 32.3032C132.04 32.3032 131.859 32.3937 131.678 32.3937C131.045 32.3937 130.954 32.0318 131.045 31.8508L131.588 28.6842H132.583L132.854 26.9651H131.95L132.131 25.8794H130.321C130.321 25.8794 129.235 31.8508 129.235 32.5746C129.235 33.6603 129.869 34.1127 130.683 34.1127C131.226 34.1127 131.678 33.9318 131.859 33.8413Z" fill="white"/>
<path d="M132.492 30.9462C132.492 33.4795 134.212 34.1128 135.659 34.1128C137.016 34.1128 137.559 33.8414 137.559 33.8414L137.921 32.1224C137.921 32.1224 136.926 32.5747 136.021 32.5747C134.031 32.5747 134.392 31.1271 134.392 31.1271H138.102C138.102 31.1271 138.373 29.9509 138.373 29.4985C138.373 28.3224 137.74 26.8747 135.75 26.8747C133.85 26.6938 132.492 28.6843 132.492 30.9462ZM135.659 28.3224C136.654 28.3224 136.473 29.4985 136.473 29.589H134.483C134.483 29.4985 134.664 28.3224 135.659 28.3224Z" fill="white"/>
<path d="M147.15 33.8411L147.512 31.8507C147.512 31.8507 146.607 32.303 145.973 32.303C144.707 32.303 144.164 31.3078 144.164 30.2221C144.164 28.0507 145.25 26.8745 146.516 26.8745C147.421 26.8745 148.145 27.4173 148.145 27.4173L148.416 25.5173C148.416 25.5173 147.331 25.0649 146.335 25.0649C144.254 25.0649 142.173 26.8745 142.173 30.3126C142.173 32.5745 143.259 34.1126 145.431 34.1126C146.154 34.1126 147.15 33.8411 147.15 33.8411Z" fill="white"/>
<path d="M121.907 26.6934C120.64 26.6934 119.735 27.0553 119.735 27.0553L119.464 28.5934C119.464 28.5934 120.278 28.2315 121.454 28.2315C122.088 28.2315 122.631 28.3219 122.631 28.8648C122.631 29.2267 122.54 29.3172 122.54 29.3172C122.54 29.3172 121.997 29.3172 121.726 29.3172C120.188 29.3172 118.469 29.9505 118.469 32.0314C118.469 33.66 119.554 34.0219 120.188 34.0219C121.454 34.0219 121.997 33.2076 122.088 33.2076L121.997 33.9314H123.626L124.35 28.9553C124.35 26.7838 122.54 26.6934 121.907 26.6934ZM122.269 30.7648C122.269 31.0362 122.088 32.4838 121.002 32.4838C120.459 32.4838 120.278 32.0314 120.278 31.76C120.278 31.3076 120.55 30.6743 121.907 30.6743C122.178 30.7648 122.269 30.7648 122.269 30.7648Z" fill="white"/>
<path d="M126.069 34.0221C126.521 34.0221 128.783 34.1125 128.783 31.6697C128.783 29.4078 126.612 29.8602 126.612 28.9554C126.612 28.503 126.973 28.3221 127.607 28.3221C127.878 28.3221 128.873 28.4125 128.873 28.4125L129.145 26.784C129.145 26.784 128.512 26.603 127.426 26.603C126.069 26.603 124.712 27.1459 124.712 28.9554C124.712 31.0364 126.973 30.8554 126.973 31.6697C126.973 32.2125 126.34 32.303 125.888 32.303C125.073 32.303 124.259 32.0316 124.259 32.0316L123.988 33.6602C124.078 33.8411 124.531 34.0221 126.069 34.0221Z" fill="white"/>
<path d="M162.169 25.2461L161.807 27.689C161.807 27.689 161.083 26.7842 160.088 26.7842C158.459 26.7842 157.012 28.7747 157.012 31.127C157.012 32.5747 157.735 34.1128 159.273 34.1128C160.359 34.1128 160.992 33.389 160.992 33.389L160.902 34.0223H162.712L164.069 25.3366L162.169 25.2461ZM161.354 30.0413C161.354 31.0366 160.902 32.3032 159.907 32.3032C159.273 32.3032 158.912 31.7604 158.912 30.8556C158.912 29.408 159.545 28.5032 160.359 28.5032C160.992 28.5032 161.354 28.9556 161.354 30.0413Z" fill="white"/>
<path d="M112.045 33.9318L113.131 27.4175L113.312 33.9318H114.578L116.931 27.4175L115.935 33.9318H117.835L119.283 25.2461H116.297L114.488 30.5842L114.397 25.2461H111.773L110.326 33.9318H112.045Z" fill="white"/>
<path d="M140.092 33.9316C140.635 30.9459 140.726 28.5031 141.992 28.9555C142.173 27.7793 142.445 27.3269 142.626 26.8745C142.626 26.8745 142.535 26.8745 142.264 26.8745C141.45 26.8745 140.816 27.9602 140.816 27.9602L140.997 26.965H139.278L138.102 34.0221H140.092V33.9316Z" fill="white"/>
<path d="M151.312 26.6934C150.045 26.6934 149.14 27.0553 149.14 27.0553L148.869 28.5934C148.869 28.5934 149.683 28.2315 150.859 28.2315C151.492 28.2315 152.035 28.3219 152.035 28.8648C152.035 29.2267 151.945 29.3172 151.945 29.3172C151.945 29.3172 151.402 29.3172 151.131 29.3172C149.592 29.3172 147.873 29.9505 147.873 32.0314C147.873 33.66 148.959 34.0219 149.592 34.0219C150.859 34.0219 151.402 33.2076 151.492 33.2076L151.402 33.9314H153.031L153.754 28.9553C153.845 26.7838 151.945 26.6934 151.312 26.6934ZM151.764 30.7648C151.764 31.0362 151.583 32.4838 150.497 32.4838C149.954 32.4838 149.773 32.0314 149.773 31.76C149.773 31.3076 150.045 30.6743 151.402 30.6743C151.673 30.7648 151.673 30.7648 151.764 30.7648Z" fill="white"/>
<path d="M155.292 33.9316C155.835 30.9459 155.926 28.5031 157.192 28.9555C157.373 27.7793 157.645 27.3269 157.826 26.8745C157.826 26.8745 157.735 26.8745 157.464 26.8745C156.65 26.8745 156.016 27.9602 156.016 27.9602L156.197 26.965H154.478L153.302 34.0221H155.292V33.9316Z" fill="white"/>
<g opacity="0.5">
<path d="M129.054 32.5746C129.054 33.6603 129.688 34.1127 130.502 34.1127C131.135 34.1127 131.678 33.9318 131.859 33.8413L132.131 32.3032C132.04 32.3032 131.859 32.3937 131.678 32.3937C131.045 32.3937 130.954 32.0318 131.045 31.8508L131.588 28.6842H132.583L132.854 26.9651H131.95L132.131 25.8794" fill="#DCE5E5"/>
<path d="M133.397 30.9462C133.397 33.4795 134.212 34.1128 135.659 34.1128C137.016 34.1128 137.559 33.8414 137.559 33.8414L137.921 32.1224C137.921 32.1224 136.926 32.5747 136.021 32.5747C134.031 32.5747 134.392 31.1271 134.392 31.1271H138.102C138.102 31.1271 138.373 29.9509 138.373 29.4985C138.373 28.3224 137.74 26.8747 135.75 26.8747C133.85 26.6938 133.397 28.6843 133.397 30.9462ZM135.659 28.3224C136.654 28.3224 136.835 29.4985 136.835 29.589H134.483C134.483 29.4985 134.664 28.3224 135.659 28.3224Z" fill="#DCE5E5"/>
<path d="M147.15 33.8411L147.512 31.8507C147.512 31.8507 146.607 32.303 145.973 32.303C144.707 32.303 144.164 31.3078 144.164 30.2221C144.164 28.0507 145.25 26.8745 146.516 26.8745C147.421 26.8745 148.145 27.4173 148.145 27.4173L148.416 25.5173C148.416 25.5173 147.331 25.0649 146.335 25.0649C144.254 25.0649 143.078 26.8745 143.078 30.3126C143.078 32.5745 143.259 34.1126 145.431 34.1126C146.154 34.1126 147.15 33.8411 147.15 33.8411Z" fill="#DCE5E5"/>
<path d="M119.464 28.684C119.464 28.684 120.278 28.3221 121.454 28.3221C122.088 28.3221 122.631 28.4126 122.631 28.9555C122.631 29.3174 122.54 29.4078 122.54 29.4078C122.54 29.4078 121.997 29.4078 121.726 29.4078C120.188 29.4078 118.469 30.0412 118.469 32.1221C118.469 33.7507 119.554 34.1126 120.188 34.1126C121.454 34.1126 121.997 33.2983 122.088 33.2983L121.997 34.0221H123.626L124.35 29.0459C124.35 26.965 122.54 26.8745 121.816 26.8745L119.464 28.684ZM123.173 30.765C123.173 31.0364 122.088 32.484 121.002 32.484C120.459 32.484 120.278 32.0317 120.278 31.7602C120.278 31.3078 120.55 30.6745 121.907 30.6745C122.178 30.765 123.173 30.765 123.173 30.765Z" fill="#DCE5E5"/>
<path d="M124.078 33.8411C124.078 33.8411 124.621 34.0221 126.159 34.0221C126.612 34.0221 128.873 34.1125 128.873 31.6697C128.873 29.4078 126.702 29.8602 126.702 28.9554C126.702 28.503 127.064 28.3221 127.697 28.3221C127.969 28.3221 128.964 28.4125 128.964 28.4125L129.235 26.784C129.235 26.784 128.602 26.603 127.516 26.603C126.159 26.603 125.707 27.1459 125.707 28.9554C125.707 31.0364 127.064 30.8554 127.064 31.6697C127.064 32.2125 126.431 32.303 125.978 32.303" fill="#DCE5E5"/>
<path d="M161.807 27.6888C161.807 27.6888 161.083 26.784 160.088 26.784C158.459 26.784 157.916 28.7745 157.916 31.1269C157.916 32.5745 157.735 34.1126 159.273 34.1126C160.359 34.1126 160.992 33.3888 160.992 33.3888L160.902 34.0221H162.712L164.069 25.3364L161.807 27.6888ZM161.716 30.0412C161.716 31.0364 160.902 32.3031 159.907 32.3031C159.273 32.3031 158.912 31.7602 158.912 30.8555C158.912 29.4079 159.545 28.5031 160.359 28.5031C160.992 28.5031 161.716 28.9555 161.716 30.0412Z" fill="#DCE5E5"/>
<path d="M112.045 33.9318L113.131 27.4175L113.312 33.9318H114.578L116.931 27.4175L115.935 33.9318H117.835L119.283 25.2461H117.021L114.488 30.5842L114.397 25.2461H113.402L110.326 33.9318H112.045Z" fill="#DCE5E5"/>
<path d="M138.192 33.9316H140.092C140.635 30.9459 140.726 28.5031 141.992 28.9555C142.173 27.7793 142.445 27.3269 142.626 26.8745C142.626 26.8745 142.535 26.8745 142.264 26.8745C141.45 26.8745 140.816 27.9602 140.816 27.9602L140.997 26.965" fill="#DCE5E5"/>
<path d="M148.869 28.684C148.869 28.684 149.683 28.3221 150.859 28.3221C151.492 28.3221 152.035 28.4126 152.035 28.9555C152.035 29.3174 151.945 29.4078 151.945 29.4078C151.945 29.4078 151.402 29.4078 151.131 29.4078C149.592 29.4078 147.873 30.0412 147.873 32.1221C147.873 33.7507 148.959 34.1126 149.592 34.1126C150.859 34.1126 151.402 33.2983 151.492 33.2983L151.402 34.0221H153.031L153.754 29.0459C153.754 26.965 151.945 26.8745 151.221 26.8745L148.869 28.684ZM152.578 30.765C152.578 31.0364 151.492 32.484 150.407 32.484C149.864 32.484 149.683 32.0317 149.683 31.7602C149.683 31.3078 149.954 30.6745 151.312 30.6745C151.673 30.765 152.578 30.765 152.578 30.765Z" fill="#DCE5E5"/>
<path d="M153.392 33.9316H155.292C155.835 30.9459 155.926 28.5031 157.192 28.9555C157.373 27.7793 157.645 27.3269 157.826 26.8745C157.826 26.8745 157.735 26.8745 157.464 26.8745C156.65 26.8745 156.016 27.9602 156.016 27.9602L156.197 26.965" fill="#DCE5E5"/>
</g>
</g>
<defs>
<clipPath id="clip0">
<rect x="197.697" y="11.9985" width="35" height="35" fill="white"/>
</clipPath>
<clipPath id="clip1">
<rect x="108.697" y="0.998535" width="57" height="57" fill="white"/>
</clipPath>
</defs>
</svg>
