<svg width="52" height="70" viewBox="0 0 52 70" fill="none" xmlns="http://www.w3.org/2000/svg">
<path d="M43.6179 5.5968H32.6584C31.4165 2.78274 28.6302 0.966553 25.554 0.966553C22.4773 0.966553 19.6909 2.78274 18.4491 5.5968H7.48905C3.35481 5.6016 0.00479484 8.95215 0 13.0864V61.6707C0.00479484 65.805 3.35481 69.1555 7.48905 69.1603H43.6179C47.7521 69.1555 51.1027 65.805 51.1075 61.6707V13.0864C51.1027 8.95215 47.7521 5.6016 43.6179 5.5968ZM19.6824 9.00649C20.4826 9.00649 21.1752 8.44975 21.3473 7.66712C21.766 5.7609 23.5354 4.37624 25.554 4.37624C27.5726 4.37624 29.3414 5.7609 29.7602 7.66712C29.9317 8.44975 30.6243 9.00649 31.4256 9.00649H34.806V10.5025C34.8033 12.7545 32.9786 14.5792 30.7266 14.5819H20.3809C18.1283 14.5792 16.3036 12.7545 16.301 10.5025V9.00649H19.6824ZM47.6978 61.6707C47.6956 63.9233 45.8704 65.7485 43.6179 65.7506H7.48905C5.23706 65.7485 3.41235 63.9233 3.40969 61.6707V13.0864C3.41235 10.8339 5.23706 9.00916 7.48905 9.00649H12.8913V10.5025C12.8961 14.6367 16.2466 17.9868 20.3809 17.9916H30.7266C34.8608 17.9868 38.2108 14.6367 38.2156 10.5025V9.00649H43.6179C45.8704 9.00916 47.6951 10.8339 47.6978 13.0864V61.6707Z" fill="#FF5B5A"/>
<path d="M33.9418 27.8965L22.7495 38.8246L17.066 33.2769C16.3974 32.6227 15.3265 32.6307 14.6664 33.2934C14.0069 33.9567 14.0042 35.0276 14.6611 35.6935L14.684 35.7159L21.5577 42.4277C22.2205 43.0745 23.278 43.0745 23.9403 42.4277L36.3233 30.3371C36.993 29.6786 37.0036 28.603 36.3483 27.9312C35.692 27.2594 34.6168 27.2444 33.9418 27.8976V27.8965Z" fill="#4B5387" stroke="#4B5387"/>
</svg>
