<svg width="60" height="61" viewBox="0 0 60 61" fill="none" xmlns="http://www.w3.org/2000/svg">
<path d="M56.6976 30.7222V22.3739C56.6976 19.543 54.5018 17.2409 51.7276 17.0176L43.9747 3.47603C43.2562 2.22363 42.0961 1.32849 40.7079 0.956792C39.3263 0.587626 37.8815 0.781511 36.6449 1.50124L10.0676 16.9741H5.3998C2.42179 16.9741 0 19.3957 0 22.3739V54.7724C0 57.7504 2.42166 60.1722 5.3998 60.1722H51.2978C54.2758 60.1722 56.6976 57.7505 56.6976 54.7724V46.4241C58.2655 45.865 59.3974 44.3806 59.3974 42.623V34.5233C59.3974 32.7657 58.2655 31.2813 56.6976 30.7222ZM38.004 3.83457C38.6156 3.4773 39.3289 3.38238 40.0092 3.56437C40.6986 3.74889 41.2735 4.19449 41.6307 4.81804L44.2612 9.41268C43.0615 9.94599 41.7809 10.2244 40.4983 10.2244C37.599 10.2244 34.9423 8.90861 33.159 6.65514L38.004 3.83457ZM30.8139 8.02043C33.1038 11.1075 36.6291 12.9244 40.4983 12.9244C42.2498 12.9244 43.9863 12.5114 45.5999 11.7509L48.5903 16.9742H15.4336L30.8139 8.02043ZM53.9976 54.7724C53.9976 56.2607 52.7861 57.4722 51.2978 57.4722H5.3998C3.91149 57.4722 2.69996 56.2607 2.69996 54.7724V22.3739C2.69996 20.8856 3.91149 19.674 5.3998 19.674H51.2978C52.7861 19.674 53.9976 20.8856 53.9976 22.3739V30.4735H45.898C41.4315 30.4735 37.7983 34.1067 37.7983 38.5731C37.7983 43.0396 41.4315 46.6728 45.898 46.6728H53.9976V54.7724ZM56.6976 42.623C56.6976 43.3677 56.0925 43.9729 55.3476 43.9729H45.898C42.92 43.9729 40.4982 41.5513 40.4982 38.5731C40.4982 35.5951 42.9198 33.1733 45.898 33.1733H55.3476C56.0924 33.1733 56.6976 33.7784 56.6976 34.5233V42.623Z" fill="#FF5B5A"/>
<path d="M45.8978 35.8732C44.4095 35.8732 43.198 37.0847 43.198 38.573C43.198 40.0613 44.4095 41.2728 45.8978 41.2728C47.3861 41.2728 48.5977 40.0613 48.5977 38.573C48.5978 37.0847 47.3863 35.8732 45.8978 35.8732Z" fill="#4B5387"/>
</svg>
