<svg width="87" height="56" viewBox="0 0 87 56" fill="none" xmlns="http://www.w3.org/2000/svg">
<path d="M74.9776 25.1708C77.5163 23.3869 79.1973 20.4193 79.1973 17.0744C79.1973 11.6025 74.7717 7.17689 69.2998 7.17689C63.8279 7.17689 59.4023 11.6025 59.4023 17.0744C59.4023 20.4193 61.0662 23.3869 63.622 25.1708C61.4435 25.9256 59.4537 27.092 57.7727 28.6015C55.457 26.6289 52.7296 25.1194 49.7449 24.2274C53.3643 22.0317 55.8001 18.035 55.8001 13.4893C55.8001 6.55936 50.1909 0.950195 43.2609 0.950195C36.3309 0.950195 30.7218 6.57652 30.7218 13.4893C30.7218 18.035 33.1404 22.0317 36.7769 24.2274C33.8265 25.1194 31.1334 26.6117 28.8349 28.55C27.1539 27.0749 25.1984 25.9256 23.0542 25.188C25.5929 23.404 27.2739 20.4365 27.2739 17.0916C27.2739 11.6196 22.8483 7.19404 17.3764 7.19404C11.9045 7.19404 7.47889 11.6196 7.47889 17.0916C7.47889 20.4365 9.14277 23.404 11.6986 25.188C4.88872 27.538 0 34.0048 0 41.6038V42.7359C0 42.7702 0.0343068 42.8045 0.0686137 42.8045H21.0472C20.9272 43.748 20.8586 44.7257 20.8586 45.7035V46.8699C20.8586 51.913 24.9411 55.9955 29.9842 55.9955H56.572C61.6151 55.9955 65.6976 51.913 65.6976 46.8699V45.7035C65.6976 44.7257 65.629 43.748 65.5089 42.8045H86.6247C86.659 42.8045 86.6934 42.7702 86.6934 42.7359V41.6038C86.659 33.9877 81.7875 27.5208 74.9776 25.1708ZM62.1468 17.0573C62.1468 13.112 65.3545 9.90428 69.2998 9.90428C73.2451 9.90428 76.4528 13.112 76.4528 17.0573C76.4528 20.9511 73.3137 24.1245 69.437 24.2102C69.3856 24.2102 69.3513 24.2102 69.2998 24.2102C69.2483 24.2102 69.214 24.2102 69.1626 24.2102C65.2687 24.1416 62.1468 20.9682 62.1468 17.0573ZM33.432 13.4893C33.432 8.08602 37.8233 3.69474 43.2266 3.69474C48.6299 3.69474 53.0212 8.08602 53.0212 13.4893C53.0212 18.704 48.9215 22.9752 43.7927 23.2668C43.604 23.2668 43.4153 23.2668 43.2266 23.2668C43.0379 23.2668 42.8492 23.2668 42.6605 23.2668C37.5317 22.9752 33.432 18.704 33.432 13.4893ZM10.172 17.0573C10.172 13.112 13.3797 9.90428 17.3249 9.90428C21.2702 9.90428 24.4779 13.112 24.4779 17.0573C24.4779 20.9511 21.3388 24.1245 17.4622 24.2102C17.4107 24.2102 17.3764 24.2102 17.3249 24.2102C17.2735 24.2102 17.2392 24.2102 17.1877 24.2102C13.311 24.1416 10.172 20.9682 10.172 17.0573ZM21.5275 40.0428H2.77885C3.55076 32.7355 9.72599 27.0062 17.222 26.9548C17.2563 26.9548 17.2906 26.9548 17.3249 26.9548C17.3593 26.9548 17.3936 26.9548 17.4279 26.9548C20.9958 26.9719 24.2549 28.2927 26.7765 30.4369C24.3064 33.1129 22.471 36.4063 21.5275 40.0428ZM62.9187 46.8699C62.9187 50.3864 60.0541 53.251 56.5377 53.251H29.9499C26.4334 53.251 23.5688 50.3864 23.5688 46.8699V45.7035C23.5688 35.0512 32.0769 26.3373 42.6605 26.0285C42.8492 26.0457 43.0551 26.0457 43.2438 26.0457C43.4324 26.0457 43.6383 26.0457 43.827 26.0285C54.4106 26.3373 62.9187 35.0512 62.9187 45.7035V46.8699ZM64.96 40.0428C64.0165 36.4235 62.2154 33.1815 59.7625 30.5055C62.3012 28.3099 65.5947 26.9891 69.1969 26.9548C69.2312 26.9548 69.2655 26.9548 69.2998 26.9548C69.3341 26.9548 69.3684 26.9548 69.4027 26.9548C76.8988 27.0062 83.074 32.7355 83.8459 40.0428H64.96Z" fill="#FF5B5A"/>
<path d="M43 25C49.5295 25 55 19.9467 55 13.5C55 7.0533 49.5295 2 43 2C36.4705 2 31 7.0533 31 13.5C31 19.9467 36.4705 25 43 25Z" stroke="#4B5387" stroke-width="4"/>
</svg>
