<svg width="62" height="62" viewBox="0 0 62 62" fill="none" xmlns="http://www.w3.org/2000/svg">
<g clip-path="url(#clip0)">
<path d="M8.94376 56.0861L18.1815 46.8569C22.1135 49.021 26.5126 50.1976 31 50.2855M8.94376 56.0861L1.4096 32.2599C0.863549 31.5087 0.863549 30.4912 1.4096 29.74M8.94376 56.0861C8.92643 56.104 8.90886 56.1216 8.89103 56.1388C8.03975 56.961 6.68324 56.9374 5.86109 56.0861C5.03894 55.2348 5.06255 53.8783 5.91382 53.0561L14.1897 44.7803C14.2024 44.789 14.215 44.7977 14.2277 44.8064L14.3694 44.6005L14.1927 44.4237L14.1605 44.4559L8.94376 56.0861ZM31 50.2855C47.2856 50.2855 60.0547 32.997 60.5904 32.2599C61.1366 31.5088 61.1366 30.4913 60.5904 29.7401M31 50.2855L31.0049 50.0355C31.004 50.0355 31.0032 50.0355 31.0023 50.0355M31 50.2855V50.0355C31.0007 50.0355 31.0015 50.0355 31.0023 50.0355M60.5904 29.7401C56.9999 25.036 52.6978 20.9213 47.8396 17.5441L47.8074 17.5763L47.6306 17.3995L47.7724 17.1936C47.785 17.2023 47.7977 17.211 47.8103 17.2197L56.0862 8.94386C56.9375 8.12171 56.9611 6.7652 56.139 5.91392C55.3168 5.06265 53.9603 5.03904 53.109 5.86119C53.0912 5.87839 53.0736 5.89597 53.0563 5.91392L43.8186 15.1431C39.8865 12.979 35.4875 11.8024 31.0001 11.7145M60.5904 29.7401L60.3882 29.8871C60.3888 29.8879 60.3893 29.8886 60.3899 29.8894M60.5904 29.7401L60.3917 29.8918C60.3911 29.891 60.3905 29.8902 60.3899 29.8894M31.0001 11.7145C14.7145 11.7145 1.94535 29.003 1.4096 29.74M31.0001 11.7145L30.9952 11.9645C30.996 11.9645 30.9968 11.9645 30.9977 11.9645M31.0001 11.7145V11.9645C30.9993 11.9645 30.9985 11.9645 30.9977 11.9645M1.4096 29.74L1.61181 29.887M1.4096 29.74L1.61181 29.887M30.9977 11.9645C22.9421 11.9654 15.7355 16.2438 10.4587 20.6429C5.18593 25.0387 1.87359 29.5269 1.61181 29.887M30.9977 11.9645C35.4437 12.052 39.8021 13.2179 43.698 15.3621L43.8625 15.4526L43.9953 15.32L53.233 6.09078L53.233 6.09081L53.2362 6.08752C53.2515 6.0717 53.2669 6.05622 53.2826 6.04111L53.2827 6.04101C54.0347 5.31478 55.2329 5.33564 55.9591 6.08759C56.6854 6.83956 56.6645 8.03781 55.9125 8.76403L55.9125 8.76401L55.9094 8.76708L47.4538 17.2227L47.2415 17.4351L47.4888 17.6054C52.4102 20.994 56.7644 25.1399 60.3899 29.8894M1.61181 29.887C1.13004 30.5498 1.12948 31.4472 1.61013 32.1106C5.23567 36.86 9.58984 41.006 14.5112 44.3946L14.7586 44.5649L14.5462 44.7773L6.0906 53.2329L6.08752 53.236L6.0875 53.236C5.33554 53.9622 5.31468 55.1605 6.04092 55.9124C6.76714 56.6644 7.96539 56.6852 8.71735 55.959L8.71745 55.9589C8.73313 55.9438 8.7486 55.9283 8.76386 55.9125L8.76704 55.9092L8.76707 55.9092L18.0048 46.68L18.1376 46.5474L18.302 46.6379C22.1979 48.782 26.5563 49.948 31.0023 50.0355M60.3899 29.8894C60.8707 30.5527 60.8701 31.4502 60.3883 32.1129L60.3882 32.1129C60.1265 32.4731 56.8141 36.9613 51.5413 41.3571C46.2645 45.7562 39.0579 50.0347 31.0023 50.0355M17.3466 41.6994L17.5171 41.813L17.6619 41.6681L22.2476 37.0824L22.3923 36.9378L22.2791 36.7674C19.9545 33.2659 19.9545 28.7122 22.2791 25.2107C25.4704 20.4039 31.9542 19.0943 36.761 22.2855L36.9314 22.3987L37.076 22.254L40.796 18.534L41.0421 18.2879L40.7303 18.1333C37.7038 16.6323 34.3829 15.8185 31.0051 15.7502V15.7502H31.0001C25.0515 15.7502 19.5059 18.5798 15.0671 21.8664C10.6249 25.1556 7.26421 28.9224 5.68035 30.8409L5.54913 30.9999L5.68015 31.159C9.02969 35.2268 12.9609 38.7784 17.3466 41.6994ZM37.0103 28.1367L36.8565 27.8221L36.609 28.0697L28.0697 36.609L27.8222 36.8565L28.1367 37.0103C29.0281 37.4462 30.0068 37.6748 30.9991 37.6786H31.0001C34.6885 37.6786 37.6786 34.6885 37.6786 31.0001V30.9991C37.6748 30.0067 37.4463 29.0281 37.0103 28.1367ZM24.9898 33.8634L25.1436 34.1779L25.3912 33.9303L33.9305 25.3911L34.178 25.1435L33.8635 24.9897C32.9721 24.5538 31.9934 24.3252 31.001 24.3214H31.0001C27.3116 24.3214 24.3216 27.3115 24.3216 30.9999L24.3216 31.0009C24.3254 31.9933 24.5539 32.9719 24.9898 33.8634ZM30.995 46.2498V46.2499H31.0001C36.9486 46.2499 42.4942 43.4202 46.9329 40.1336C51.3752 36.8445 54.7359 33.0777 56.3198 31.1591L56.451 31.0001L56.32 30.841C52.9705 26.7733 49.0393 23.2216 44.6536 20.3006L44.4831 20.187L44.3382 20.3319L39.7525 24.9176L39.6079 25.0622L39.721 25.2326C42.0457 28.7341 42.0457 33.2878 39.721 36.7893C36.5298 41.5961 30.046 42.9057 25.2392 39.7145L25.0688 39.6014L24.9241 39.746L21.2041 43.466L20.958 43.7121L21.2699 43.8667C24.2965 45.3677 27.6173 46.1815 30.995 46.2498Z" fill="#4B5387" stroke="white" stroke-width="0.5"/>
<line x1="56.4142" y1="5.41421" x2="5.41421" y2="56.4142" stroke="#FF5B5A" stroke-width="4"/>
</g>
<rect x="1" y="1" width="60" height="60" stroke="white"/>
<defs>
<clipPath id="clip0">
<rect x="1" y="1" width="60" height="60" fill="white"/>
</clipPath>
</defs>
</svg>
