<svg width="17" height="17" viewBox="0 0 17 17" fill="none" xmlns="http://www.w3.org/2000/svg">
<path d="M9.46396 7.77779L9.41831 7.87347L9.49328 7.94844L14.2359 12.6911L12.5741 14.3529L11.7433 13.522L11.6372 13.4159L11.5311 13.522L9.76329 15.2898L8.10153 13.6281L9.86936 11.8602L9.97542 11.7542L9.86936 11.6481L7.83149 9.61022L7.75653 9.53526L7.66084 9.5809C6.23808 10.2596 4.48689 10.0134 3.31071 8.83724C1.8163 7.34282 1.8163 4.92208 3.31072 3.42766C4.80513 1.93324 7.22587 1.93324 8.72029 3.42766C9.89647 4.60384 10.1427 6.35501 9.46396 7.77779ZM4.9725 5.0894C4.39624 5.66566 4.39626 6.59922 4.9725 7.17545C5.54873 7.75168 6.48226 7.75174 7.05853 7.17547C7.63479 6.59921 7.63476 5.66566 7.05853 5.08943C6.4823 4.51319 5.54876 4.51314 4.9725 5.0894Z" />
</svg>
