<svg width="85" height="85" viewBox="0 0 85 85" fill="none" xmlns="http://www.w3.org/2000/svg">
<g clip-path="url(#clip0)">
<path d="M42.5 77.9166C23.0208 77.9166 7.08331 61.9791 7.08331 42.4999C7.08331 23.0208 23.0208 7.08325 42.5 7.08325C61.9792 7.08325 77.9167 23.0208 77.9167 42.4999C77.9167 61.9791 61.9792 77.9166 42.5 77.9166ZM42.5 10.6249C24.7916 10.6249 10.625 24.7916 10.625 42.4999C10.625 60.2083 24.7916 74.3749 42.5 74.3749C60.2083 74.3749 74.375 60.2083 74.375 42.4999C74.375 24.7916 60.2083 10.6249 42.5 10.6249Z" fill="#FFF"/>
<path d="M42.5 17.7083C41.4375 17.7083 40.7292 17 40.7292 15.9375V1.77083C40.7292 0.708333 41.4375 0 42.5 0C43.5625 0 44.2709 0.708333 44.2709 1.77083V15.9375C44.2709 17 43.5625 17.7083 42.5 17.7083Z" fill="#FFF"/>
<path d="M42.5 17.7083C41.4375 17.7083 40.7292 17 40.7292 15.9375V1.77083C40.7292 0.708333 41.4375 0 42.5 0C43.5625 0 44.2709 0.708333 44.2709 1.77083V15.9375C44.2709 17 43.5625 17.7083 42.5 17.7083Z" fill="#FFF"/>
<path d="M83.2292 44.2709H69.0625C68 44.2709 67.2917 43.5626 67.2917 42.5001C67.2917 41.4376 68 40.7292 69.0625 40.7292H83.2292C84.2917 40.7292 85 41.4376 85 42.5001C85 43.5626 84.2917 44.2709 83.2292 44.2709Z" fill="#FFF"/>
<path d="M42.5 85.0001C41.4375 85.0001 40.7292 84.2917 40.7292 83.2293V69.0626C40.7292 68.0001 41.4375 67.2917 42.5 67.2917C43.5625 67.2917 44.2709 68.0001 44.2709 69.0626V83.2293C44.2709 84.2917 43.5625 85.0001 42.5 85.0001Z" fill="#FFF"/>
<path d="M15.9375 44.2709H1.77083C0.708333 44.2709 0 43.5626 0 42.5001C0 41.4376 0.708333 40.7292 1.77083 40.7292H15.9375C17 40.7292 17.7083 41.4376 17.7083 42.5001C17.7083 43.5626 17 44.2709 15.9375 44.2709Z" fill="#FFF"/>
<path d="M42.5 38.9584C38.6042 38.9584 35.4167 35.7709 35.4167 31.8751C35.4167 27.9792 38.6042 24.7917 42.5 24.7917C46.3958 24.7917 49.5833 27.9792 49.5833 31.8751C49.5833 35.7709 46.3958 38.9584 42.5 38.9584ZM42.5 28.3334C40.375 28.3334 38.9584 29.7501 38.9584 31.8751C38.9584 34.0001 40.375 35.4167 42.5 35.4167C44.625 35.4167 46.0417 34.0001 46.0417 31.8751C46.0417 29.7501 44.625 28.3334 42.5 28.3334Z" fill="#FFF"/>
<path d="M54.8958 56.6667C53.8333 56.6667 53.125 55.9583 53.125 54.8958V51.3542C53.125 48.5208 50.6458 46.0417 47.8125 46.0417H37.1875C34.3542 46.0417 31.875 48.5208 31.875 51.3542V54.8958C31.875 55.9583 31.1667 56.6667 30.1042 56.6667C29.0417 56.6667 28.3333 55.9583 28.3333 54.8958V51.3542C28.3333 46.3958 32.2292 42.5 37.1875 42.5H47.8125C52.7708 42.5 56.6667 46.3958 56.6667 51.3542V54.8958C56.6667 55.9583 55.9583 56.6667 54.8958 56.6667Z" fill="#FFF"/>
</g>
<defs>
<clipPath id="clip0">
<rect width="85" height="85" fill="white"/>
</clipPath>
</defs>
</svg>
