<svg width="65" height="57" viewBox="0 0 65 57" fill="none" xmlns="http://www.w3.org/2000/svg">
<path d="M35.6364 41.3763C34.8555 42.1573 34.8555 43.4213 35.6364 44.2003C36.4174 44.9812 37.6815 44.9812 38.4604 44.2003L52.2386 30.42C52.6541 30.0045 52.8319 29.4514 52.8038 28.9081C52.8319 28.3629 52.654 27.8117 52.2386 27.3963L38.4604 13.6181C37.6815 12.8372 36.4153 12.8372 35.6364 13.6181C34.8555 14.399 34.8555 15.6631 35.6364 16.4419L46.1074 26.9129H2.99714C1.89472 26.913 1 27.8077 1 28.9102C1 30.0126 1.89472 30.9073 2.99714 30.9073H46.1074L35.6364 41.3763ZM56.9199 0.950195H16.9771C12.5655 0.950195 8.98856 4.52709 8.98856 8.93876V16.9273H12.9828V8.93876C12.9828 6.73391 14.7703 4.94448 16.9771 4.94448H56.9199C59.1267 4.94448 60.9142 6.73391 60.9142 8.93876V48.8816C60.9142 51.0864 59.1267 52.8758 56.9199 52.8758H16.9771C14.7703 52.8758 12.9828 51.0884 12.9828 48.8816V40.893H8.98856V48.8816C8.98856 53.2932 12.5655 56.8701 16.9771 56.8701H56.9199C61.3316 56.8701 64.9085 53.2932 64.9085 48.8816V8.93876C64.9085 4.52709 61.3316 0.950195 56.9199 0.950195Z" fill="#FF5B5A"/>
<path d="M35.3333 14L52 29.0187L35.3333 44M52 29H2" stroke="#4B5387" stroke-width="4" stroke-miterlimit="10" stroke-linecap="round" stroke-linejoin="round"/>
</svg>
