<svg width="71" height="71" viewBox="0 0 71 71" fill="none" xmlns="http://www.w3.org/2000/svg">
<g clip-path="url(#clip0)">
<path d="M62.5204 62.9785L52.2054 45.8769C51.9995 45.5357 51.678 45.2908 51.3107 45.1767L46.8951 43.7247L52.9703 30.7131C52.9848 30.6818 52.9983 30.6503 53.0109 30.6183C54.178 27.6299 54.6045 24.4854 54.2785 21.2726C53.73 15.8679 51.0964 11.016 46.8628 7.61101C42.6299 4.20679 37.3243 2.67452 31.924 3.29933C26.6791 3.90519 21.9478 6.51677 18.6016 10.6533C15.2557 14.7895 13.6894 19.9619 14.1913 25.218C14.4979 28.43 15.5809 31.5496 17.3225 34.2399C17.3411 34.2686 17.3607 34.2969 17.3811 34.3246L25.9463 45.8504L21.8891 48.1727C21.5572 48.3626 21.3045 48.6652 21.1768 49.0256L14.508 67.8509C14.2847 68.4805 14.4771 69.1827 14.9901 69.6107C15.5029 70.0387 16.2278 70.1027 16.8077 69.7708L26.9653 63.955L38.0843 67.6116C38.5144 67.7529 38.9843 67.7052 39.3772 67.4804L49.5349 61.6646L60.6538 65.3212C60.871 65.3926 61.0956 65.4153 61.3138 65.3932C61.7329 65.3507 62.1283 65.143 62.4022 64.7993C62.8183 64.2769 62.8656 63.5507 62.5204 62.9785ZM19.9774 32.4611C18.509 30.1783 17.6325 27.6396 17.3723 24.9144C16.5015 15.7966 23.194 7.52397 32.2909 6.47331C36.8347 5.95042 41.2992 7.2368 44.8603 10.101C48.4225 12.9658 50.6383 17.0478 51.0997 21.5953C51.3724 24.2825 51.0203 26.9109 50.0531 29.409L38.7058 53.7127C38.3594 54.4545 37.6909 54.5986 37.4195 54.6262C37.148 54.6537 36.4643 54.6468 35.976 53.9897L19.9774 32.4611ZM49.8571 58.4072C49.427 58.2659 48.9571 58.3136 48.5642 58.5384L38.4065 64.3542L27.2876 60.6976C26.8575 60.5563 26.3876 60.604 25.9946 60.8288L18.9579 64.8578L23.9907 50.6515L27.8658 48.4335L33.4109 55.8954C34.4272 57.2631 36.0463 57.977 37.7416 57.8049C39.4369 57.6329 40.8796 56.6083 41.6004 55.0644L45.5334 46.6407L49.7755 48.0356L57.5593 60.9406L49.8571 58.4072Z" fill="#4B5387"/>
<path d="M33.5053 16.0517C29.5053 16.4576 26.5814 20.0419 26.9873 24.0418C27.3932 28.0417 30.9775 30.9656 34.9776 30.5596C38.9775 30.1538 41.9013 26.5694 41.4954 22.5695C41.0895 18.5696 37.5052 15.6457 33.5053 16.0517ZM34.655 27.3809C32.4079 27.6091 30.3941 25.9666 30.166 23.7192C29.938 21.4721 31.5806 19.4584 33.8279 19.2304C36.075 19.0024 38.0886 20.645 38.3167 22.8921C38.5447 25.1392 36.9021 27.1529 34.655 27.3809Z" fill="#FF5B5A"/>
</g>
<defs>
<clipPath id="clip0">
<rect width="64.7459" height="64.7459" fill="white" transform="translate(0 6.53699) rotate(-5.79464)"/>
</clipPath>
</defs>
</svg>
