<svg width="61" height="60" viewBox="0 0 61 60" fill="none" xmlns="http://www.w3.org/2000/svg">
<path d="M48.0412 2.52717L16.9023 2.05257C13.264 1.99876 10.2697 4.90273 10.213 8.541L10.1697 11.3874L7.07289 11.3402C6.34482 11.3291 5.74612 11.9102 5.73503 12.6379C5.72394 13.3655 6.30465 13.9646 7.03272 13.9757L10.1159 14.0227L9.98414 22.6673L6.90096 22.6203C6.1729 22.6092 5.57421 23.1899 5.56311 23.918C5.55202 24.6456 6.13273 25.2447 6.86079 25.2558L9.94397 25.3028L9.81221 33.9474L6.72904 33.9004C6.00097 33.8893 5.40227 34.4704 5.39118 35.1981C5.38009 35.9262 5.9608 36.5249 6.68887 36.536L9.77204 36.5829L9.64028 45.2275L6.55711 45.1805C5.82904 45.1694 5.23035 45.7506 5.21926 46.4782C5.20817 47.2059 5.78887 47.805 6.51694 47.8161L9.60011 47.8631L9.55673 50.7094C9.50293 54.3478 12.4069 57.3416 16.0452 57.3987L47.1841 57.8733C50.8224 57.9271 53.8171 55.0232 53.8734 51.3849L54.5161 9.21624C54.5768 5.58051 51.677 2.58506 48.0412 2.52717ZM51.2514 51.3449C51.2116 53.5253 49.4184 55.265 47.2378 55.238L16.0989 54.7634C13.9185 54.724 12.1788 52.9304 12.2059 50.7498L12.2492 47.9034L15.3324 47.9504C16.0605 47.9615 16.6592 47.3804 16.6703 46.6527C16.6814 45.9251 16.1007 45.326 15.3726 45.3149L12.2894 45.2679L12.4212 36.6233L15.5043 36.6703C16.2324 36.6814 16.8311 36.1007 16.8422 35.3726C16.8533 34.645 16.2726 34.0459 15.5445 34.0348L12.4613 33.9878L12.5931 25.3432L15.6763 25.3902C16.4043 25.4013 17.003 24.8202 17.0141 24.0925C17.0252 23.3644 16.4445 22.7658 15.7164 22.7547L12.6333 22.7077L12.765 14.0631L15.8482 14.1101C16.5763 14.1212 17.175 13.5401 17.186 12.8124C17.1971 12.0847 16.6164 11.4856 15.8884 11.4745L12.8052 11.4275L12.8486 8.58116C12.888 6.40076 14.6815 4.66105 16.8621 4.68811L48.0011 5.16271C50.1815 5.20212 51.9208 6.99568 51.8941 9.17628L51.2514 51.3449Z" fill="#4B5387"/>
<path d="M32.0492 29.5808C35.5788 29.6346 38.484 26.817 38.5378 23.287C38.5916 19.757 35.7736 16.8522 32.2441 16.7984C28.7141 16.7446 25.8093 19.5622 25.7555 23.0922C25.705 26.6206 28.5205 29.5237 32.0492 29.5808ZM32.2041 19.4208C34.2779 19.4524 35.9341 21.1598 35.9025 23.2337C35.8709 25.3075 34.1635 26.9637 32.0896 26.9321C30.0154 26.9005 28.3596 25.193 28.3912 23.1192C28.4265 21.0471 30.131 19.3929 32.2041 19.4208Z" fill="#FF5B5A"/>
<path d="M32.0169 31.7024C26.535 31.6189 22.1709 35.9943 22.0844 41.6739C22.0753 42.4007 22.6553 42.9986 23.3821 43.0117L40.3026 43.2696C41.0295 43.2786 41.6274 42.6987 41.6405 41.9719C41.7271 36.2923 37.4984 31.786 32.0169 31.7024ZM24.8454 40.3979C25.4673 36.809 28.3397 34.2825 31.9767 34.338C35.6134 34.3934 38.421 37.0064 38.9196 40.6124L24.8454 40.3979Z" fill="#FF5B5A"/>
</svg>
