<svg width="22" height="21" viewBox="0 0 22 21" fill="none" xmlns="http://www.w3.org/2000/svg">
<path d="M16.81 13.8777C16.1256 13.2021 15.2713 13.2021 14.5913 13.8777C14.0726 14.3921 13.5539 14.9064 13.0439 15.4295C12.9044 15.5733 12.7867 15.6039 12.6167 15.508C12.2811 15.3249 11.9236 15.1767 11.6011 14.9762C10.0973 14.0303 8.83753 12.8142 7.72164 11.4455C7.16806 10.7655 6.67551 10.0375 6.33115 9.21806C6.26141 9.05242 6.27449 8.94345 6.40961 8.80832C6.92832 8.30704 7.43396 7.79269 7.94395 7.27834C8.65445 6.56348 8.65445 5.72657 7.93959 5.00735C7.53421 4.59761 7.12883 4.19659 6.72345 3.78685C6.305 3.3684 5.8909 2.94558 5.46809 2.53149C4.78374 1.86457 3.92939 1.86457 3.2494 2.53585C2.72633 3.0502 2.22506 3.57763 1.69327 4.08326C1.20071 4.54966 0.952253 5.12068 0.899946 5.78759C0.817127 6.87296 1.08302 7.89731 1.45789 8.8955C2.22506 10.9616 3.39324 12.7967 4.80989 14.4793C6.72345 16.7546 9.00752 18.5548 11.6795 19.8538C12.8826 20.4379 14.1292 20.8869 15.4849 20.961C16.4177 21.0133 17.2284 20.7779 17.8779 20.05C18.3225 19.553 18.8238 19.0997 19.2946 18.6246C19.992 17.9184 19.9963 17.0641 19.3033 16.3667C18.4751 15.5341 17.6425 14.7059 16.81 13.8777Z"/>
<path d="M15.9774 10.4037L17.5859 10.1291C17.333 8.6514 16.6356 7.31321 15.5764 6.24964C14.4562 5.1294 13.0395 4.42325 11.479 4.20531L11.2524 5.82246C12.4598 5.99246 13.5582 6.53732 14.4256 7.40475C15.2451 8.22422 15.7813 9.26165 15.9774 10.4037Z"/>
<path d="M18.4925 3.41199C16.6356 1.55509 14.2862 0.382542 11.6926 0.020752L11.466 1.63791C13.7064 1.95175 15.7377 2.96738 17.3418 4.5671C18.863 6.08836 19.8612 8.01064 20.223 10.1247L21.8314 9.8501C21.4086 7.40039 20.2535 5.17734 18.4925 3.41199Z"/>
</svg>
